<svg id="Capa_1" enable-background="new 0 0 512 512" height="512" viewBox="0 0 512 512" width="512" xmlns="http://www.w3.org/2000/svg"><g><path d="m197.287 51.857h-21.764c-15.812 0-28.631 12.818-28.631 28.631v52.913h26.289v-53.194c0-1.138.923-2.061 2.061-2.061h22.045z" fill="#c6865c"/><path d="m313.714 51.857h22.881c15.812 0 28.631 12.818 28.631 28.631v52.913h-26.289v-53.194c0-1.138-.923-2.061-2.061-2.061h-23.162z" fill="#c6865c"/><path d="m.117 202.181v253.624c0 3.65 2.959 6.609 6.609 6.609h498.665c3.65 0 6.609-2.959 6.609-6.609v-253.665z" fill="#d8aa8b"/><path d="m174.407 260.007v15.773h-84.389v-15.773h-58.34v161.765c0 5.015 4.066 9.081 9.081 9.081h206.218c5.015 0 9.081-4.066 9.081-9.081v-161.765z" fill="#c6865c"/><path d="m480.438 260.007h-58.34v15.773h-84.388v-15.773h-81.651v161.765c0 5.015 4.066 9.081 9.081 9.081h206.217c5.015 0 9.081-4.066 9.081-9.081z" fill="#c6865c"/><path d="m214.842 260.007v101.652c0 26.833-21.752 48.586-48.586 48.586h-134.577v11.527c0 5.015 4.066 9.081 9.081 9.081h206.217c5.015 0 9.081-4.066 9.081-9.081v-161.765z" fill="#c17d4f"/><path d="m439.222 260.007v101.652c0 26.833-21.753 48.586-48.586 48.586h-134.577v11.527c0 5.015 4.066 9.081 9.081 9.081h206.217c5.015 0 9.081-4.066 9.081-9.081v-161.765z" fill="#c17d4f"/><path d="m505.274 114.403h-498.665c-3.65 0-6.609 2.959-6.609 6.609v119.955c0 10.516 8.525 19.04 19.04 19.04h473.802c10.516 0 19.04-8.525 19.04-19.04v-119.955c.001-3.65-2.958-6.609-6.608-6.609z" fill="#d8aa8b"/><path d="m505.274 114.403h-34.608v81.667c0 23.93-19.399 43.329-43.329 43.329h-427.337v1.568c0 10.516 8.525 19.04 19.04 19.04h473.802c10.516 0 19.04-8.525 19.04-19.04v-119.955c.001-3.65-2.958-6.609-6.608-6.609z" fill="#ce9875"/><path d="m172.191 275.78h-79.956c-1.224 0-2.216-.992-2.216-2.216v-27.389c0-1.224.992-2.216 2.216-2.216h79.956c1.224 0 2.216.992 2.216 2.216v27.389c0 1.224-.992 2.216-2.216 2.216z" fill="#f6f9f9"/><path d="m159.334 202.978h-54.242c-3.581 0-6.484 2.903-6.484 6.484v34.497h67.21v-34.497c0-3.581-2.903-6.484-6.484-6.484z" fill="#c6865c"/><path d="m171.916 275.78h-79.406v46.86c0 10.21 8.276 18.486 18.486 18.486h42.435c10.21 0 18.486-8.276 18.486-18.486v-46.86z" fill="#e7ecf1"/><path d="m145.98 341.126h-27.774v-33.489c0-2.628 2.131-4.759 4.759-4.759h18.257c2.628 0 4.759 2.131 4.759 4.759v33.489z" fill="#dae4ea"/><path d="m339.926 275.78h79.956c1.224 0 2.216-.992 2.216-2.216v-27.389c0-1.224-.992-2.216-2.216-2.216h-79.956c-1.224 0-2.216.992-2.216 2.216v27.389c0 1.224.992 2.216 2.216 2.216z" fill="#f6f9f9"/><path d="m352.783 202.978h54.242c3.581 0 6.484 2.903 6.484 6.484v34.497h-67.21v-34.497c0-3.581 2.903-6.484 6.484-6.484z" fill="#c6865c"/><path d="m340.201 275.78h79.407v46.86c0 10.21-8.276 18.486-18.486 18.486h-42.435c-10.21 0-18.486-8.276-18.486-18.486z" fill="#e7ecf1"/><path d="m366.137 341.126h27.774v-33.489c0-2.628-2.131-4.759-4.759-4.759h-18.257c-2.628 0-4.759 2.131-4.759 4.759v33.489z" fill="#dae4ea"/><path d="m326.009 80.417h-139.9c-.754 0-1.364-.611-1.364-1.364v-28.102c0-.754.611-1.364 1.364-1.364h139.9c.754 0 1.364.611 1.364 1.364v28.102c0 .753-.611 1.364-1.364 1.364z" fill="#d8aa8b"/><path d="m288.54 202.141h-65.197c-3.9 0-7.062-3.162-7.062-7.062v-15.748c0-3.9 3.162-7.062 7.062-7.062h65.197c3.9 0 7.062 3.162 7.062 7.062v15.748c0 3.9-3.162 7.062-7.062 7.062z" fill="#f6f9f9"/></g></svg>