<svg id="Capa_1" enable-background="new 0 0 511.887 511.887" height="512" viewBox="0 0 511.887 511.887" width="512" xmlns="http://www.w3.org/2000/svg"><g><path d="m485.908 259.832h-68.769v13.157c0 1.188-.963 2.151-2.151 2.151h-77.596c-1.188 0-2.151-.963-2.151-2.151v-13.157h-158.482v13.157c0 1.188-.963 2.151-2.151 2.151h-77.596c-1.188 0-2.151-.963-2.151-2.151v-13.157h-68.769c-10.192 0-18.457-8.252-18.478-18.438v208.456c0 3.542 2.871 6.414 6.414 6.414h483.945c3.542 0 6.414-2.872 6.414-6.414v-208.496c0 10.205-8.273 18.478-18.479 18.478z" fill="#d8aa8b"/><path d="m176.759 259.832v15.308h-81.898v-15.308h-56.617v156.99c0 4.867 3.946 8.813 8.813 8.813h200.13c4.867 0 8.813-3.946 8.813-8.813v-156.99z" fill="#c6865c"/><path d="m473.757 259.832h-56.618v15.308h-81.898v-15.308h-79.241v156.99c0 4.867 3.946 8.813 8.813 8.813h200.13c4.867 0 8.813-3.946 8.813-8.813v-156.99z" fill="#c6865c"/><path d="m216 259.832v98.651c0 26.041-21.11 47.151-47.151 47.151h-130.605v11.187c0 4.867 3.946 8.813 8.813 8.813h200.13c4.867 0 8.813-3.946 8.813-8.813v-156.99h-40z" fill="#c17d4f"/><path d="m433.757 259.832v98.651c0 26.041-21.11 47.151-47.151 47.151h-130.606v11.187c0 4.867 3.946 8.813 8.813 8.813h200.13c4.867 0 8.813-3.946 8.813-8.813v-156.99h-39.999z" fill="#c17d4f"/><path d="m497.859 118.526h-483.945c-3.542 0-6.414 2.871-6.414 6.414v116.414c0 10.205 8.273 18.478 18.478 18.478h68.769v-13.423c0-1.188.963-2.151 2.151-2.151h77.596c1.188 0 2.151.963 2.151 2.151v13.423h158.482v-13.423c0-1.188.963-2.151 2.151-2.151h77.596c1.188 0 2.151.963 2.151 2.151v13.423h68.769c10.205 0 18.478-8.273 18.478-18.478v-116.414c.001-3.543-2.87-6.414-6.413-6.414z" fill="#d8aa8b"/><path d="m497.859 118.526h-33.586v79.256c0 23.223-18.826 42.05-42.05 42.05h-414.723v1.522c0 10.205 8.273 18.478 18.478 18.478h68.769v-13.423c0-1.188.963-2.151 2.151-2.151h77.596c1.188 0 2.151.963 2.151 2.151v13.423h158.482v-13.423c0-1.188.963-2.151 2.151-2.151h77.596c1.188 0 2.151.963 2.151 2.151v13.423h68.769c10.205 0 18.478-8.273 18.478-18.478v-116.414c.001-3.542-2.87-6.414-6.413-6.414z" fill="#ce9875"/><path d="m174.608 275.14h-77.596c-1.188 0-2.151-.963-2.151-2.151v-26.58c0-1.188.963-2.151 2.151-2.151h77.596c1.188 0 2.151.963 2.151 2.151v26.58c0 1.188-.963 2.151-2.151 2.151z" fill="#f6f9f9"/><path d="m162.13 204.487h-52.64c-3.475 0-6.293 2.817-6.293 6.293v33.478h65.226v-33.478c0-3.476-2.817-6.293-6.293-6.293z" fill="#c6865c"/><path d="m174.342 275.14h-77.063v45.477c0 9.908 8.032 17.94 17.94 17.94h41.182c9.908 0 17.94-8.032 17.94-17.94v-45.477z" fill="#e7ecf1"/><path d="m122.217 301.438h26.954v37.119h-26.954z" fill="#dae4ea"/><path d="m337.392 275.14h77.596c1.188 0 2.151-.963 2.151-2.151v-26.58c0-1.188-.963-2.151-2.151-2.151h-77.596c-1.188 0-2.151.963-2.151 2.151v26.58c0 1.188.963 2.151 2.151 2.151z" fill="#f6f9f9"/><path d="m349.87 204.487h52.64c3.475 0 6.293 2.817 6.293 6.293v33.478h-65.226v-33.478c0-3.476 2.817-6.293 6.293-6.293z" fill="#c6865c"/><path d="m337.659 275.14h77.063v45.477c0 9.908-8.032 17.94-17.94 17.94h-41.182c-9.908 0-17.94-8.032-17.94-17.94v-45.477z" fill="#e7ecf1"/><path d="m362.829 301.438h26.954v37.119h-26.954z" fill="#dae4ea" transform="matrix(-1 0 0 -1 752.612 639.994)"/><path d="m323.885 85.543h-135.77c-.731 0-1.324-.593-1.324-1.324v-27.272c0-.731.593-1.324 1.324-1.324h135.771c.731 0 1.324.593 1.324 1.324v27.273c0 .731-.593 1.323-1.325 1.323z" fill="#d8aa8b"/><path d="m186.791 57.827h-8.949c-15.346 0-27.786 12.44-27.786 27.786v32.914h25.513v-33.187c0-1.105.895-2 2-2h9.222z" fill="#c6865c"/><path d="m325.21 57.827h8.949c15.346 0 27.786 12.44 27.786 27.786v32.914h-25.513v-33.187c0-1.105-.895-2-2-2h-9.222z" fill="#c6865c"/><path d="m217.397 174.684h76.979v28.99h-76.979z" fill="#f6f9f9"/><path d="m.114 449.851c0 7.672 6.241 13.914 13.913 13.914h483.945c7.672 0 13.914-6.242 13.914-13.914 0-239.44-.113-211.357-.113-324.911 0-7.672-6.242-13.914-13.914-13.914h-67.569c-4.143 0-7.5 3.358-7.5 7.5s3.357 7.5 7.5 7.5h66.483v115.328c0 6.054-4.925 10.979-10.979 10.979h-61.156v-5.923c0-4.875-3.634-8.918-8.336-9.561v-26.068c0-7.605-6.188-13.792-13.792-13.792h-52.64c-7.605 0-13.793 6.188-13.793 13.792v26.068c-4.702.643-8.336 4.686-8.336 9.561v5.923h-143.482v-5.923c0-4.875-3.634-8.918-8.336-9.561v-26.068c0-7.605-6.188-13.792-13.792-13.792h-52.641c-7.605 0-13.793 6.188-13.793 13.792v26.068c-4.702.643-8.336 4.686-8.336 9.561v5.923h-61.382c-5.517 0-10.095-4.09-10.864-9.398 0-1.309.037-1.994-.114-2.851v-114.058h380.29c4.143 0 7.5-3.358 7.5-7.5s-3.357-7.5-7.5-7.5h-25.846v-25.414c0-19.457-15.829-35.286-35.285-35.286h-4.446c-1.556-1.371-3.596-2.204-5.827-2.204h-71.488c-4.143 0-7.5 3.358-7.5 7.5s3.357 7.5 7.5 7.5h65.313v14.921h-123.421v-14.92h23.105c4.143 0 7.5-3.358 7.5-7.5s-3.357-7.5-7.5-7.5h-29.281c-2.231 0-4.272.833-5.827 2.204h-4.446c-19.457 0-35.286 15.829-35.286 35.286v25.414h-128.642c-7.672-.001-13.914 6.241-13.914 13.912 0 85.105.114 239.743.114 324.912zm354.33-364.239v25.414h-10.513v-25.687c0-5.238-4.262-9.5-9.5-9.5h-1.722v-10.512h1.449c11.187 0 20.286 9.1 20.286 20.285zm-30.558 7.431c1.875 0 3.615-.588 5.046-1.589v19.572h-145.864v-19.573c1.431 1.001 3.172 1.59 5.047 1.59zm-166.33-7.431c0-11.186 9.101-20.286 20.286-20.286h1.449v10.513h-1.723c-5.238 0-9.5 4.262-9.5 9.5v25.687h-10.513v-25.414zm224.727 245.445h-11.954v-22.119h11.954zm7.5-37.119h-26.954c-4.143 0-7.5 3.358-7.5 7.5v29.615c-5.632-.144-10.17-4.771-10.17-10.437v-37.976h62.063v37.977c0 5.589-4.414 10.165-9.938 10.428v-29.606c-.001-4.143-3.358-7.501-7.501-7.501zm19.856-42.18v6.77c-.15.854-.153 1.738 0 2.609v6.503h-66.897v-15.882zm-58.562-39.771h50.226v24.771h-50.226zm-20.918 67.384v41.246c0 14.028 11.412 25.44 25.44 25.44h41.182c14.028 0 25.44-11.413 25.44-25.44v-41.247c1.503-1.702 2.417-3.937 2.417-6.381v-5.657h41.618v149.49c0 .724-.589 1.313-1.313 1.313h-200.13c-.725 0-1.313-.589-1.313-1.313v-149.49h64.241v5.657c0 2.444.914 4.679 2.418 6.382zm-188.488 51.686h-11.953v-22.119h11.953zm7.5-37.119h-26.953c-4.143 0-7.5 3.358-7.5 7.5v29.606c-5.525-.263-9.938-4.84-9.938-10.428v-37.976h62.063v37.977c0 5.667-4.538 10.294-10.171 10.437v-29.615c-.001-4.143-3.359-7.501-7.501-7.501zm20.088-42.18v6.77c-.15.854-.153 1.738 0 2.609v6.503h-66.897v-15.882zm-58.562-39.771h50.226v24.771h-50.226zm-84.718 55.345h4.765v34.106c0 4.142 3.357 7.5 7.5 7.5s7.5-3.358 7.5-7.5v-34.106h41.618v5.657c0 2.445.914 4.679 2.418 6.382v41.246c0 14.028 11.412 25.44 25.44 25.44h41.182c14.028 0 25.44-11.413 25.44-25.44v-41.247c1.503-1.702 2.417-3.937 2.417-6.381v-5.657h64.241v149.49c0 .724-.589 1.313-1.313 1.313h-200.13c-.725 0-1.313-.589-1.313-1.313v-80.384c0-4.142-3.357-7.5-7.5-7.5s-7.5 3.358-7.5 7.5v80.384c0 8.995 7.318 16.313 16.313 16.313h200.131c3.244 0 6.27-.952 8.813-2.591 2.543 1.639 5.569 2.591 8.813 2.591h200.13c8.995 0 16.313-7.318 16.313-16.313v-149.49h4.538c3.966 0 7.726-.894 11.092-2.489v183.921h-481.773v-183.815c3.308 1.529 6.988 2.383 10.865 2.383z"/><path d="m217.396 167.184c-4.143 0-7.5 3.358-7.5 7.5v28.99c0 4.142 3.357 7.5 7.5 7.5h76.979c4.143 0 7.5-3.358 7.5-7.5v-28.99c0-4.142-3.357-7.5-7.5-7.5zm69.48 28.99h-61.979v-13.99h61.979z"/></g></svg>